<svg width="25" height="24" viewBox="0 0 25 24" fill="none" xmlns="http://www.w3.org/2000/svg">
<path d="M9.83333 12C9.83333 10.5272 11.0272 9.33333 12.5 9.33333C13.9728 9.33333 15.1667 10.5272 15.1667 12C15.1667 13.4728 13.9728 14.6667 12.5 14.6667C11.0272 14.6667 9.83333 13.4728 9.83333 12Z" fill="#4F3422"/>
<path fill-rule="evenodd" clip-rule="evenodd" d="M12.5006 0C11.0278 0 9.8339 1.19391 9.8339 2.66667C9.8339 3.73536 8.54161 4.27037 7.78592 3.51469C6.74453 2.47329 5.05609 2.47329 4.01469 3.51469C2.97329 4.55609 2.97329 6.24453 4.01469 7.28593C4.77022 8.04146 4.23515 9.33333 3.16667 9.33333C1.69391 9.33333 0.5 10.5272 0.5 12C0.5 13.4728 1.69391 14.6667 3.16667 14.6667C4.23514 14.6667 4.77027 15.9585 4.01475 16.714C2.97335 17.7554 2.97335 19.4439 4.01475 20.4853C5.05615 21.5266 6.74459 21.5266 7.78598 20.4853C8.54167 19.7296 9.8339 20.2646 9.8339 21.3333C9.8339 22.8061 11.0278 24 12.5006 24C13.9733 24 15.1672 22.8061 15.1672 21.3333C15.1672 20.2652 16.4587 19.7299 17.214 20.4853C18.2554 21.5267 19.9439 21.5267 20.9853 20.4853C22.0266 19.4439 22.0266 17.7554 20.9853 16.714C20.2297 15.9585 20.7649 14.6667 21.8333 14.6667C23.3061 14.6667 24.5 13.4728 24.5 12C24.5 10.5272 23.3061 9.33333 21.8333 9.33333C20.7648 9.33333 20.2298 8.04146 20.9853 7.28592C22.0267 6.24453 22.0267 4.55609 20.9853 3.51469C19.9439 2.47329 18.2555 2.47329 17.2141 3.51469C16.4587 4.27002 15.1672 3.73487 15.1672 2.66667C15.1672 1.19391 13.9733 0 12.5006 0ZM12.5 6.66667C9.55448 6.66667 7.16667 9.05448 7.16667 12C7.16667 14.9455 9.55448 17.3333 12.5 17.3333C15.4455 17.3333 17.8333 14.9455 17.8333 12C17.8333 9.05448 15.4455 6.66667 12.5 6.66667Z" fill="#4F3422"/>
</svg>
