<svg width="25" height="24" viewBox="0 0 25 24" fill="none" xmlns="http://www.w3.org/2000/svg">
<path d="M21.5 12C21.5 13.78 20.9722 15.5201 19.9832 17.0001C18.9943 18.4802 17.5887 19.6337 15.9442 20.3149C14.2996 20.9961 12.49 21.1743 10.7442 20.8271C8.99836 20.4798 7.39471 19.6226 6.13604 18.364C4.87737 17.1053 4.0202 15.5016 3.67293 13.7558C3.32567 12.01 3.5039 10.2004 4.18508 8.55585C4.86627 6.91131 6.01983 5.50571 7.49987 4.51677C8.97991 3.52784 10.72 3 12.5 3" stroke="white" stroke-width="2" stroke-linejoin="round"/>
<path d="M13.6716 14.8284L19.5 9C20.6046 7.89543 20.6046 6.10457 19.5 5C18.3954 3.89543 16.6046 3.89543 15.5 5L9.67157 10.8284C8.92143 11.5786 8.5 12.596 8.5 13.6569V16H10.8431C11.904 16 12.9214 15.5786 13.6716 14.8284Z" stroke="white" stroke-width="2" stroke-linejoin="round"/>
<path d="M15.5 9C16.6046 10.1046 18.3954 10.1046 19.5 9C20.6046 7.89543 20.6046 6.10457 19.5 5C18.3954 3.89543 16.6046 3.89543 15.5 5C14.3954 6.10457 14.3954 7.89543 15.5 9Z" stroke="white" stroke-width="2" stroke-linejoin="round"/>
</svg>
