<svg width="18" height="18" viewBox="0 0 18 18" fill="none" xmlns="http://www.w3.org/2000/svg">
<path d="M8.99935 7.33268C10.8403 7.33268 12.3327 5.8403 12.3327 3.99935C12.3327 2.1584 10.8403 0.666016 8.99935 0.666016C7.1584 0.666016 5.66602 2.1584 5.66602 3.99935C5.66602 5.8403 7.1584 7.33268 8.99935 7.33268Z" fill="#EF8834"/>
<path d="M8.99935 17.3327C10.8403 17.3327 12.3327 15.8403 12.3327 13.9993C12.3327 12.1584 10.8403 10.666 8.99935 10.666C7.1584 10.666 5.66602 12.1584 5.66602 13.9993C5.66602 15.8403 7.1584 17.3327 8.99935 17.3327Z" fill="#EF8834"/>
<path d="M13.9993 12.3327C12.1584 12.3327 10.666 10.8403 10.666 8.99935C10.666 7.1584 12.1584 5.66602 13.9993 5.66602C15.8403 5.66602 17.3327 7.1584 17.3327 8.99935C17.3327 10.8403 15.8403 12.3327 13.9993 12.3327Z" fill="#EF8834"/>
<path d="M0.666016 8.99935C0.666016 10.8403 2.1584 12.3327 3.99935 12.3327C5.8403 12.3327 7.33268 10.8403 7.33268 8.99935C7.33268 7.1584 5.8403 5.66602 3.99935 5.66602C2.1584 5.66602 0.666016 7.1584 0.666016 8.99935Z" fill="#EF8834"/>
</svg>
