<svg width="23" height="28" viewBox="0 0 23 28" fill="none" xmlns="http://www.w3.org/2000/svg">
<path fill-rule="evenodd" clip-rule="evenodd" d="M14.5143 0.779266C14.1135 0.704425 13.704 0.666016 13.2905 0.666016H7.49967C3.81778 0.666016 0.833008 3.65078 0.833008 7.33268V20.666C0.833008 24.3479 3.81778 27.3327 7.49967 27.3327H15.4997C19.1816 27.3327 22.1663 24.3479 22.1663 20.666V9.54182C22.1663 9.12836 22.1279 8.71886 22.0531 8.31809C22.0152 8.35837 21.9767 8.39809 21.9376 8.43725C21.2756 9.09924 20.451 9.57532 19.5467 9.81762C18.6424 10.0599 17.6903 10.0599 16.786 9.81762C15.8817 9.57532 15.0571 9.09924 14.3951 8.43725C13.7331 7.77526 13.257 6.95068 13.0147 6.04638C12.7724 5.14209 12.7724 4.18994 13.0147 3.28565C13.257 2.38135 13.7331 1.55677 14.3951 0.894779C14.4343 0.855621 14.474 0.817113 14.5143 0.779266ZM15.4997 13.9994L7.49967 13.9993V11.3327L15.4997 11.3327V13.9994ZM7.49967 19.3327H12.833V16.666H7.49967V19.3327Z" fill="#4F3422"/>
<path d="M20.7283 5.40588C20.5689 5.20437 20.3972 5.01127 20.2137 4.82778L18.0046 2.61864C17.8211 2.43514 17.628 2.26344 17.4265 2.10404C16.9938 2.22898 16.5996 2.46156 16.2807 2.7804C15.9497 3.11139 15.7117 3.52368 15.5905 3.97583C15.4694 4.42798 15.4694 4.90405 15.5905 5.3562C15.7117 5.80835 15.9497 6.22064 16.2807 6.55163C16.6117 6.88263 17.024 7.12067 17.4762 7.24182C17.9283 7.36297 18.4044 7.36297 18.8565 7.24182C19.3087 7.12067 19.721 6.88263 20.052 6.55163C20.3708 6.2328 20.6034 5.83854 20.7283 5.40588Z" fill="#4F3422"/>
</svg>
